<?xml version="1.0" standalone="no"?>
<!DOCTYPE svg PUBLIC "-//W3C//DTD SVG 20010904//EN"
 "http://www.w3.org/TR/2001/REC-SVG-20010904/DTD/svg10.dtd">
<svg version="1.0" xmlns="http://www.w3.org/2000/svg"
 width="700.000000pt" height="700.000000pt" viewBox="0 0 700.000000 700.000000"
 preserveAspectRatio="xMidYMid meet">
<metadata>
Created by potrace 1.11, written by Peter Selinger 2001-2013
</metadata>
<g transform="translate(0.000000,700.000000) scale(0.100000,-0.100000)"
fill="#000000" stroke="none">
<path d="M2313 6265 c-16 -7 -38 -25 -48 -41 -18 -27 -19 -51 -20 -405 l0
-376 -76 0 c-188 -3 -364 -88 -471 -230 -84 -111 -128 -236 -128 -365 l0 -68
-367 0 c-218 0 -383 -4 -405 -10 -28 -8 -41 -20 -56 -51 -32 -63 -15 -131 40
-163 27 -16 64 -18 409 -18 l379 0 0 -483 0 -483 -376 0 c-267 0 -384 -4 -404
-12 -40 -17 -63 -56 -62 -106 0 -53 15 -80 55 -104 30 -19 53 -20 410 -20
l377 0 0 -440 0 -440 -376 0 c-417 0 -430 -2 -455 -63 -18 -43 -19 -66 -2
-108 27 -69 26 -69 452 -69 l381 0 1 -50 c1 -27 2 -53 3 -57 1 -5 6 -28 10
-53 5 -25 23 -78 42 -119 97 -212 300 -344 537 -350 l47 -1 0 -385 c0 -424 0
-428 60 -457 60 -29 139 -6 164 47 14 28 16 89 16 414 l0 381 489 0 490 0 0
-332 c0 -505 -4 -453 31 -488 16 -16 37 -31 47 -31 49 -4 85 2 109 17 53 35
54 42 54 454 l0 380 440 0 440 0 0 -385 c0 -282 3 -391 12 -411 16 -34 79 -64
122 -57 45 7 64 20 86 56 19 30 20 53 20 415 l0 382 48 1 c50 1 52 1 132 18
253 54 455 302 459 564 l1 47 381 0 c340 0 384 2 410 17 46 27 68 103 43 153
-15 32 -47 60 -71 65 -10 2 -186 4 -390 4 l-373 1 0 440 0 440 378 0 c360 0
378 1 410 20 56 34 72 104 40 168 -26 51 -40 53 -449 54 l-379 1 0 482 0 483
376 0 c421 0 425 1 454 65 24 53 16 104 -21 142 l-29 30 -389 3 -388 3 -6 92
c-13 239 -153 437 -370 525 -32 13 -68 25 -80 28 -12 2 -33 6 -47 9 -14 2 -42
6 -62 7 l-38 2 0 56 c0 30 -1 197 -1 372 -1 293 -2 318 -20 348 -23 37 -71 60
-117 54 -48 -6 -69 -20 -89 -57 -15 -28 -17 -75 -17 -402 l-1 -370 -437 0
c-298 -1 -438 2 -439 10 -1 5 -2 172 -3 370 -2 238 -6 369 -14 387 -32 76
-162 84 -209 12 -17 -26 -18 -57 -18 -404 l-1 -375 -487 -1 c-268 0 -487 2
-488 5 0 4 -2 173 -2 376 -2 335 -4 373 -19 398 -10 14 -26 30 -35 36 -31 16
-89 19 -120 6z m2574 -1070 c52 -6 148 -49 187 -83 45 -40 94 -133 106 -200 8
-49 10 -435 8 -1442 l-3 -1375 -29 -62 c-30 -66 -96 -137 -157 -169 -80 -41
-78 -41 -1524 -40 l-1390 1 -65 32 c-84 42 -136 93 -174 173 l-31 65 -3 1385
c-2 1051 0 1399 9 1443 30 147 156 258 312 275 80 9 2683 6 2754 -3z"/>
<path d="M2358 4881 c-99 -32 -167 -94 -216 -198 l-27 -58 -2 -1095 -2 -1095
22 -66 c38 -111 115 -188 228 -226 51 -17 114 -18 1144 -17 1002 0 1094 2
1139 17 101 36 179 110 220 210 21 52 21 54 23 1137 3 1154 4 1131 -44 1225
-31 60 -110 132 -173 158 l-55 22 -1100 2 c-1042 2 -1103 1 -1157 -16z m2218
-236 c19 -8 42 -27 52 -44 18 -29 18 -77 18 -1095 -1 -1056 -1 -1065 -21
-1092 -12 -15 -36 -32 -55 -38 -25 -8 -339 -11 -1086 -11 l-1050 1 -32 23
c-18 12 -35 36 -40 54 -5 18 -8 507 -8 1088 1 1158 -4 1071 61 1110 28 17 85
18 1079 18 872 0 1055 -2 1082 -14z"/>
<path d="M2655 4421 c-30 -13 -65 -49 -67 -69 -6 -71 -3 -553 5 -575 5 -15 22
-36 37 -47 58 -41 129 -28 171 31 23 33 23 37 24 289 0 140 -2 270 -6 289 -11
50 -47 81 -100 86 -24 2 -53 1 -64 -4z"/>
<path d="M3132 4410 c-18 -11 -37 -32 -43 -48 -7 -17 -11 -125 -11 -298 0
-245 1 -275 18 -302 42 -72 153 -74 201 -3 16 23 18 56 21 297 4 308 0 328
-61 357 -46 22 -85 21 -125 -3z"/>
<path d="M3613 4415 c-60 -26 -63 -44 -63 -350 0 -242 2 -281 17 -306 30 -51
115 -68 169 -32 50 32 54 60 54 348 0 297 -3 315 -65 341 -42 17 -71 17 -112
-1z"/>
<path d="M3385 3256 c-45 -20 -93 -72 -105 -114 -5 -20 -10 -129 -10 -242 0
-194 1 -208 23 -250 13 -28 39 -56 66 -74 l43 -29 452 -1 c480 -2 514 1 564
46 55 51 60 80 58 327 -1 221 -2 227 -26 262 -13 20 -40 47 -59 60 l-35 24
-470 2 c-375 2 -477 0 -501 -11z m951 -120 c17 -13 19 -28 20 -145 l1 -131
-483 0 -484 0 0 125 c0 112 2 127 20 145 19 19 33 20 463 20 367 0 447 -2 463
-14z"/>
</g>
</svg>
